<?xml version="1.0" encoding="UTF-8"?>
<svg version="1.1" xmlns="http://www.w3.org/2000/svg" width="397" height="385">
<path d="M0 0 C131.01 0 262.02 0 397 0 C397 127.05 397 254.1 397 385 C265.99 385 134.98 385 0 385 C0 257.95 0 130.9 0 0 Z " fill="#2072BB" transform="translate(0,0)"/>
<path d="M0 0 C131.01 0 262.02 0 397 0 C397 127.05 397 254.1 397 385 C265.99 385 134.98 385 0 385 C0 257.95 0 130.9 0 0 Z M14 14 C14 124.55 14 235.1 14 349 C128.18 349 242.36 349 360 349 C360 238.45 360 127.9 360 14 C245.82 14 131.64 14 14 14 Z " fill="#010101" transform="translate(0,0)"/>
<path d="M0 0 C41.25 0 82.5 0 125 0 C125 12.54 125 25.08 125 38 C97.61 38 70.22 38 42 38 C42 55.16 42 72.32 42 90 C46.62 90 51.24 90 56 90 C58.9375 92.625 58.9375 92.625 61 96 C62.82365787 97.65293245 64.71677005 99.17406921 66.64453125 100.703125 C67.09183594 101.13109375 67.53914063 101.5590625 68 102 C68 102.66 68 103.32 68 104 C68.99 104 69.98 104 71 104 C71.33514297 101.6762444 71.33514297 101.6762444 71 99 C69.27906624 96.75010662 69.27906624 96.75010662 67 94.8125 C65.63631466 93.57429265 64.29521049 92.30966596 63 91 C63 90.34 63 89.68 63 89 C62.01 88.67 61.02 88.34 60 88 C60 87.34 60 86.68 60 86 C62.3125 85.3125 62.3125 85.3125 65 85 C66.8125 86.3125 66.8125 86.3125 68 88 C68 88.66 68 89.32 68 90 C68.99 89.67 69.98 89.34 71 89 C70.56495142 86.47671825 70.29077075 85.26840377 68.375 83.5 C67 82 67 82 66.9375 79.9375 C68 78 68 78 71.0625 76.75 C72.031875 76.5025 73.00125 76.255 74 76 C74.33 77.98 74.66 79.96 75 82 C75.99 81.67 76.98 81.34 78 81 C77.484375 80.071875 76.96875 79.14375 76.4375 78.1875 C75 75 75 75 76 72 C80.2742558 73.5830577 82.26531794 76.50568404 85 80 C83.50163895 83.11198065 81.80066242 86.0534615 80 89 C82.92879371 88.37240135 85.36095629 87.41377341 88 86 C88 85.34 88 84.68 88 84 C89.98 84.99 89.98 84.99 92 86 C90.56951306 89.18283344 88.80982757 91.57915658 86.5 94.1875 C85.8915625 94.88230469 85.283125 95.57710938 84.65625 96.29296875 C83 98 83 98 81 99 C81.33 100.32 81.66 101.64 82 103 C86.68445462 101.07298571 89.43805671 97.48172866 92.78125 93.80078125 C95 92 95 92 97.28125 92.23046875 C97.8484375 92.48441406 98.415625 92.73835938 99 93 C98.57270986 95.47828283 98.28174873 96.72952122 96.4375 98.5 C94.53872976 100.13505943 94.53872976 100.13505943 95 104 C95.99 104 96.98 104 98 104 C98 103.34 98 102.68 98 102 C98.66 102 99.32 102 100 102 C100.99 100.02 100.99 100.02 102 98 C105.83146596 99.56096761 108.28148054 101.91411305 111 105 C111.8203125 106.9609375 111.8203125 106.9609375 112 109 C110.85546875 110.703125 110.85546875 110.703125 109.1875 112.25 C108.37345703 113.03117187 108.37345703 113.03117187 107.54296875 113.828125 C106 115 106 115 104 115 C104 115.66 104 116.32 104 117 C103.34 117 102.68 117 102 117 C102 116.34 102 115.68 102 115 C101.34 115 100.68 115 100 115 C99.67 114.34 99.34 113.68 99 113 C97.68 113 96.36 113 95 113 C95.27617533 114.94074861 95.27617533 114.94074861 96 117 C97.485 117.99 97.485 117.99 99 119 C98.6875 120.9375 98.6875 120.9375 98 123 C96.515 123.495 96.515 123.495 95 124 C94.54109375 123.46890625 94.0821875 122.9378125 93.609375 122.390625 C90.50506283 118.81675301 87.41818688 115.28145941 84 112 C82.515 112.495 82.515 112.495 81 113 C81.47409648 117.31730413 84.03396703 119.33647461 87.0625 122.25 C87.98160156 123.14203125 88.90070313 124.0340625 89.84765625 124.953125 C90.55792969 125.62859375 91.26820313 126.3040625 92 127 C91.34 128.32 90.68 129.64 90 131 C89.34 131 88.68 131 88 131 C88 130.34 88 129.68 88 129 C86.02 128.01 86.02 128.01 84 127 C84 126.34 84 125.68 84 125 C82.515 125.495 82.515 125.495 81 126 C81.59927826 129.35595828 82.84622436 131.37801226 85 134 C83.43977363 137.82964655 81.12444429 140.32190489 78 143 C74 143 74 143 72.078125 141.46875 C71.47484375 140.8190625 70.8715625 140.169375 70.25 139.5 C69.63640625 138.8503125 69.0228125 138.200625 68.390625 137.53125 C67.70226562 136.77328125 67.70226562 136.77328125 67 136 C67.95483849 133.54470101 68.91947188 131.15658246 70.125 128.8125 C71.14491636 127.03525867 71.14491636 127.03525867 71 125 C70.51789063 125.433125 70.03578125 125.86625 69.5390625 126.3125 C68.90742187 126.869375 68.27578125 127.42625 67.625 128 C66.99851562 128.556875 66.37203125 129.11375 65.7265625 129.6875 C64 131 64 131 62 131 C62 130.34 62 129.68 62 129 C61.34 129 60.68 129 60 129 C61.92701429 124.31554538 65.51827134 121.56194329 69.19921875 118.21875 C71.28869131 116.17713354 71.28869131 116.17713354 70.76953125 113.71875 C70.51558594 113.1515625 70.26164062 112.584375 70 112 C66.9055548 113.34715071 65.10778741 114.7517211 63 117.375 C60.76907468 120.12728286 58.54188369 122.45811631 56 125 C51.38 125 46.76 125 42 125 C42 142.49 42 159.98 42 178 C69.72 178 97.44 178 126 178 C126 190.54 126 203.08 126 216 C84.42 216 42.84 216 0 216 C0 144.72 0 73.44 0 0 Z " fill="#FBFDFE" transform="translate(52,71)"/>
<path d="M0 0 C1.84111739 -0.00298657 1.84111739 -0.00298657 3.71942908 -0.00603348 C5.08874248 -0.00318025 6.4580557 -0.00023465 7.82736874 0.00279331 C9.27633764 0.00235748 10.72530646 0.00148235 12.17427486 0.00020415 C16.16559801 -0.00203849 20.15689447 0.00197735 24.14821422 0.00698221 C28.44885342 0.0112899 32.74949105 0.00984005 37.0501318 0.00907993 C44.50494972 0.00855488 51.9597589 0.01169982 59.41457462 0.01731777 C70.19524076 0.02543668 80.97590266 0.02804842 91.75657152 0.02930576 C109.24924342 0.03149595 126.74191067 0.03815485 144.23458004 0.04760838 C161.22481418 0.05678083 178.21504705 0.06386274 195.20528316 0.06811619 C196.77505787 0.06851027 196.77505787 0.06851027 198.3765452 0.06891232 C203.62676004 0.07021739 208.8769749 0.07148112 214.12718976 0.07272422 C254.65939811 0.08237024 295.19160214 0.09796463 335.72380644 0.11838573 C336.94861029 0.11900243 338.17341414 0.11961913 339.43533325 0.12025452 C340.49920228 0.12079659 341.56307131 0.12133866 342.65917879 0.12189716 C345.97672241 0.12493812 345.97672241 0.12493812 349.29146481 0.01757908 C356.55743979 -0.21608934 361.34549767 0.79196938 367.09224606 5.56054783 C370.5459232 9.99615279 369.54100344 15.81844641 369.15474606 21.12304783 C368.39162106 20.81367283 367.62849606 20.50429783 366.84224606 20.18554783 C362.94222037 18.64367721 359.6352367 17.90379412 355.46724606 17.56054783 C354.47337887 17.47675877 353.47951168 17.3929697 352.45552731 17.30664158 C351.69626949 17.24605564 350.93701168 17.1854697 350.15474606 17.12304783 C350.1564548 18.16589617 350.1564548 18.16589617 350.15819806 19.22981215 C350.22532671 60.43142045 350.27680292 101.6330224 350.30794204 142.83467439 C350.31169418 147.7813849 350.31557715 152.7280953 350.31954098 157.67480564 C350.32032791 158.65961003 350.32111484 159.64441442 350.32192562 160.65906137 C350.33498089 176.60659484 350.35863542 192.55409587 350.38620444 208.5016101 C350.41425524 224.86422627 350.43092163 241.22682544 350.43701154 257.58946466 C350.44112865 267.6867536 350.45413408 277.78395086 350.47849546 287.88121158 C350.49434861 294.80450722 350.49914736 301.72775544 350.49525019 308.65106791 C350.49332799 312.64594753 350.49628264 316.64066692 350.51236248 320.63551807 C350.52698444 324.29492468 350.52768365 327.95406361 350.51744274 331.61348265 C350.51557933 333.56009457 350.5284975 335.50670344 350.54198998 337.45326948 C350.50828616 344.02938338 350.14598379 349.20675223 347.15474606 355.12304783 C344.52974606 356.56054783 344.52974606 356.56054783 342.15474606 357.12304783 C341.82474606 357.45304783 341.49474606 357.78304783 341.15474606 358.12304783 C339.35219149 358.22465267 337.54561497 358.25520675 335.7402029 358.25891972 C334.55795745 358.26377746 333.375712 358.26863521 332.15764093 358.27364016 C330.84220442 358.27393614 329.52676791 358.27423213 328.17146969 358.27453709 C326.77301076 358.27838346 325.37455298 358.28267027 323.97609663 358.28736258 C320.11515385 358.29904793 316.25422289 358.30449737 312.39326596 358.30899739 C308.23643409 358.31492889 304.07961811 358.32660073 299.9227972 358.33763218 C292.71459018 358.35601135 285.50638281 358.3708448 278.29816341 358.38340855 C267.87507287 358.40166765 257.45200501 358.42633276 247.02893239 358.45278245 C230.11856639 358.49561196 213.20819415 358.53471889 196.29781246 358.57080173 C194.77832657 358.57404594 194.77832657 358.57404594 193.22814399 358.57735568 C185.00796745 358.59487858 176.78779054 358.61222228 168.5676136 358.62955856 C161.3823021 358.64471992 154.19699076 358.6599528 147.01167965 358.67529392 C145.49403459 358.67853223 145.49403459 358.67853223 143.94573003 358.68183595 C127.10058968 358.71790043 110.25546071 358.75785035 93.41033602 358.80059671 C83.00821345 358.82680291 72.60609441 358.84944962 62.20395458 358.86758029 C55.08168559 358.8802146 47.95943011 358.89632827 40.83717501 358.91522944 C36.72170217 358.92602298 32.6062425 358.93512852 28.49075794 358.93992519 C24.72943309 358.94433415 20.9681479 358.95324792 17.20684189 358.96586841 C15.18851809 358.97141969 13.17018256 358.97200136 11.15185118 358.9724555 C9.96960573 358.97731325 8.78736028 358.98217099 7.56928921 358.98717594 C6.02596959 358.9903499 6.02596959 358.9903499 4.45147181 358.99358797 C2.19051873 358.86521125 2.19051873 358.86521125 1.15474606 360.12304783 C1.21905516 362.27155662 1.35609769 364.41810251 1.52974606 366.56054783 C1.61998043 367.73488377 1.71021481 368.9092197 1.80318356 370.11914158 C1.97264066 373.04234717 1.97264066 373.04234717 3.15474606 375.12304783 C-8.48463697 376.15511135 -8.48463697 376.15511135 -12.97025394 372.49804783 C-17.91158967 367.32828053 -18.06441377 362.04663246 -18.01322269 355.19726658 C-17.84525394 353.12304783 -17.84525394 353.12304783 -16.84525394 352.12304783 C-16.98686063 351.56039937 -17.12846732 350.99775091 -17.27436513 350.41805249 C-17.95587148 347.67835922 -17.97449976 345.22743632 -17.97947502 342.40297318 C-17.98393287 341.22890496 -17.98839071 340.05483674 -17.99298364 338.8451907 C-17.99279928 337.55425828 -17.99261491 336.26332586 -17.99242496 334.93327427 C-17.99572477 333.54887693 -17.99945058 332.16448054 -18.00356644 330.78008538 C-18.01358098 326.97170681 -18.01730234 323.163344 -18.01995575 319.35495412 C-18.02386031 315.24918758 -18.03343841 311.14343349 -18.04216862 307.0376749 C-18.06192658 297.12154047 -18.07199744 287.20540502 -18.08089641 277.28925583 C-18.08527955 272.62048795 -18.09064622 267.9517212 -18.09588528 263.28295422 C-18.11289529 247.76541441 -18.12739052 232.24787531 -18.13463402 216.73032761 C-18.13654393 212.7039264 -18.13846426 208.67752519 -18.14041996 204.651124 C-18.14114557 203.15000142 -18.14114557 203.15000142 -18.14188584 201.61855314 C-18.15019015 185.39898624 -18.17553484 169.179493 -18.20800064 152.95995828 C-18.24105402 136.31132366 -18.25908114 119.6627265 -18.26227826 103.01405889 C-18.26444472 93.66490187 -18.27321356 84.31585232 -18.29873943 74.96672726 C-18.32042275 67.00660065 -18.32850847 59.04660762 -18.31877265 51.08645483 C-18.31422134 47.02479594 -18.3161623 42.96341282 -18.3355341 38.90179157 C-18.35311921 35.18269392 -18.35220634 31.46407418 -18.3366368 27.74497179 C-18.33312562 25.76400478 -18.34932158 23.78303303 -18.36624128 21.80213517 C-18.31702772 15.02369317 -18.0002243 10.58634312 -13.84525394 5.12304783 C-9.30718691 0.91703448 -6.0883392 -0.00217274 0 0 Z M-8.84525394 9.12304783 C-8.84525394 119.67304783 -8.84525394 230.22304783 -8.84525394 344.12304783 C105.33474606 344.12304783 219.51474606 344.12304783 337.15474606 344.12304783 C337.15474606 233.57304783 337.15474606 123.02304783 337.15474606 9.12304783 C222.97474606 9.12304783 108.79474606 9.12304783 -8.84525394 9.12304783 Z " fill="#080E21" transform="translate(22.845253944396973,4.876952171325684)"/>
<path d="M0 0 C1.20241113 -0.00322445 2.40482225 -0.00644889 3.64367008 -0.00977105 C4.98478264 -0.00829979 6.3258951 -0.00673206 7.66700745 -0.00507832 C9.08639048 -0.00694558 10.50577299 -0.00924594 11.92515469 -0.01194364 C15.83473204 -0.0180784 19.74428807 -0.01792608 23.65386915 -0.01674926 C27.86659547 -0.01654568 32.07931485 -0.02205988 36.29203796 -0.02680683 C44.54840937 -0.03512277 52.80477364 -0.03786208 61.06114888 -0.03841921 C67.76919612 -0.03889386 74.47724099 -0.04094603 81.18528748 -0.04411983 C100.18847701 -0.05292843 119.19166088 -0.05753881 138.19485247 -0.05678936 C139.21989457 -0.0567494 140.24493667 -0.05670945 141.30104065 -0.05666828 C142.3273287 -0.0566274 143.35361674 -0.05658652 144.41100442 -0.0565444 C161.05363581 -0.05613771 177.6962446 -0.06571242 194.33886945 -0.07980665 C211.41233789 -0.09415212 228.48579529 -0.10107787 245.55926991 -0.10021287 C255.15084601 -0.0998803 264.74239842 -0.10265364 274.33396912 -0.11339092 C282.49842481 -0.12247183 290.66284606 -0.12469105 298.8273046 -0.1178815 C302.99571972 -0.11460425 307.16406865 -0.11460278 311.33247757 -0.12323475 C315.14442679 -0.13104767 318.95625677 -0.12972222 322.7682029 -0.12095062 C324.15106511 -0.11940407 325.53393599 -0.12127477 326.91678798 -0.12681069 C328.78908748 -0.13381268 330.66142303 -0.1274154 332.53372192 -0.12025452 C333.57594689 -0.12047188 334.61817186 -0.12068925 335.69197941 -0.12091321 C338.26686096 0.12863445 338.26686096 0.12863445 341.26686096 2.12863445 C339.28686096 1.79863445 337.30686096 1.46863445 335.26686096 1.12863445 C334.49443827 2.96564234 334.49443827 2.96564234 334.26686096 5.12863445 C335.64200638 6.83739906 335.64200638 6.83739906 337.26686096 8.12863445 C337.26686096 8.45863445 337.26686096 8.78863445 337.26686096 9.12863445 C165.00686096 9.62363445 165.00686096 9.62363445 -10.73313904 10.12863445 C-10.73313904 119.02863445 -10.73313904 227.92863445 -10.73313904 340.12863445 C-11.06313904 340.12863445 -11.39313904 340.12863445 -11.73313904 340.12863445 C-12.06313904 334.84863445 -12.39313904 329.56863445 -12.73313904 324.12863445 C-12.85688904 325.75800945 -12.98063904 327.38738445 -13.10813904 329.06613445 C-13.31907654 331.8434782 -13.31907654 331.8434782 -13.73313904 334.12863445 C-14.39313904 334.45863445 -15.05313904 334.78863445 -15.73313904 335.12863445 C-16.14043131 337.45020042 -16.47752581 339.78551315 -16.73313904 342.12863445 C-17.06313904 342.12863445 -17.39313904 342.12863445 -17.73313904 342.12863445 C-17.82467403 300.20776002 -17.89516733 258.28689711 -17.93740036 216.36594256 C-17.94240324 211.41794321 -17.94758053 206.46994406 -17.9528656 201.521945 C-17.95391484 200.5368783 -17.95496408 199.5518116 -17.95604512 198.53689439 C-17.97345521 182.58220546 -18.00499624 166.62757413 -18.04175022 150.67291939 C-18.07914282 134.30465956 -18.10137133 117.93642991 -18.10949302 101.56812912 C-18.11498428 91.46619987 -18.13233433 81.36443339 -18.16480491 71.26255424 C-18.18593202 64.33738903 -18.19234317 57.4123081 -18.18714455 50.48711299 C-18.18457996 46.4902832 -18.18853955 42.49373805 -18.20996094 38.49695873 C-18.2294343 34.83692141 -18.23040431 31.17736001 -18.21673462 27.51730073 C-18.21424578 25.56794871 -18.23149082 23.61860224 -18.24946427 21.66933149 C-18.20334211 14.93152563 -17.84957526 10.56445435 -13.73313904 5.12863445 C-9.23595553 0.96051315 -6.03569741 0.00407944 0 0 Z " fill="#050E22" transform="translate(22.733139038085938,4.871365547180176)"/>
<path d="M0 0 C6.765 -0.0825 13.53 -0.165 20.5 -0.25 C22.61986328 -0.28641602 24.73972656 -0.32283203 26.92382812 -0.36035156 C28.62629182 -0.37204691 30.3287668 -0.38223673 32.03125 -0.390625 C32.89717773 -0.41108887 33.76310547 -0.43155273 34.65527344 -0.45263672 C41.68757587 -0.45662781 46.91754869 1.29882751 52.2421875 5.96484375 C52.78101563 6.61582031 53.31984375 7.26679688 53.875 7.9375 C54.70644531 8.91009766 54.70644531 8.91009766 55.5546875 9.90234375 C60.54123233 17.13957233 60.01473174 26.54718608 59 35 C57.85668047 38.54383505 56.36612342 41.14551971 54 44 C53.4225 44.763125 52.845 45.52625 52.25 46.3125 C44.74065618 51.94450786 37.59771473 52.53485841 28.4375 52.25 C24.663125 52.1675 20.88875 52.085 17 52 C17 61.9 17 71.8 17 82 C11.39 82 5.78 82 0 82 C0 54.94 0 27.88 0 0 Z " fill="#F9FCFC" transform="translate(196,205)"/>
<path d="M0 0 C3.12310532 2.23562853 6.0363825 4.62243991 8.80078125 7.2890625 C8.14078125 8.9390625 7.48078125 10.5890625 6.80078125 12.2890625 C6.14078125 12.2890625 5.48078125 12.2890625 4.80078125 12.2890625 C4.53265625 12.8871875 4.26453125 13.4853125 3.98828125 14.1015625 C2.81584658 16.26131058 1.60708843 17.64696506 -0.19921875 19.2890625 C-2.67421875 18.2990625 -2.67421875 18.2990625 -5.19921875 17.2890625 C-5.19921875 16.6290625 -5.19921875 15.9690625 -5.19921875 15.2890625 C-11.93883167 13.5045787 -19.0083043 11.75580112 -25.76171875 14.2265625 C-27.77758537 17.11889287 -27.7735524 19.5748774 -27.92578125 23.03515625 C-26.75366407 26.67124018 -24.50543499 27.56098349 -21.19921875 29.2890625 C-18.56863315 29.87791744 -16.10475557 30.3227453 -13.44921875 30.6640625 C-5.07940788 31.98854566 1.21786686 34.70614811 7.30078125 40.7890625 C11.49485303 47.77918214 11.99338967 55.69871052 10.30078125 63.6328125 C8.70848766 68.3373163 6.25627007 71.7449714 2.80078125 75.2890625 C2.14078125 75.2890625 1.48078125 75.2890625 0.80078125 75.2890625 C0.80078125 75.9490625 0.80078125 76.6090625 0.80078125 77.2890625 C-9.41720232 82.43249692 -21.25197703 82.94719071 -32.36328125 80.62890625 C-38.31827614 78.49948857 -42.75551355 74.70794253 -47.19921875 70.2890625 C-46.47342443 65.86023593 -45.21280097 63.6571838 -42.19921875 60.2890625 C-41.45671875 59.3609375 -41.45671875 59.3609375 -40.69921875 58.4140625 C-39.19921875 57.2890625 -39.19921875 57.2890625 -37.38671875 57.2890625 C-34.78374816 58.47899191 -32.91203784 60.21809898 -30.76171875 62.078125 C-26.20779218 65.60741809 -20.71642542 65.83749259 -15.19921875 65.2890625 C-11.85101921 64.53665491 -11.85101921 64.53665491 -9.19921875 63.2890625 C-7.93684144 60.76430788 -8.10065471 58.97705784 -8.13671875 56.1640625 C-8.14574219 55.25398438 -8.15476562 54.34390625 -8.1640625 53.40625 C-8.17566406 52.70757812 -8.18726563 52.00890625 -8.19921875 51.2890625 C-13.12797293 48.72511462 -17.61017335 47.08795859 -23.13671875 46.3515625 C-30.5623318 45.25287485 -37.51001588 43.03092022 -42.19921875 36.8515625 C-46.45927715 29.83676668 -47.20560866 22.90654802 -45.76953125 14.890625 C-44.14151682 9.00163454 -41.13285013 4.90561942 -36.19921875 1.2890625 C-33.26171875 0.3515625 -33.26171875 0.3515625 -31.19921875 0.2890625 C-31.19921875 -0.3709375 -31.19921875 -1.0309375 -31.19921875 -1.7109375 C-21.89893109 -4.03600941 -8.53896323 -4.75717791 0 0 Z " fill="#F4F9FA" transform="translate(311.19921875,206.7109375)"/>
<path d="M0 0 C0.33 0 0.66 0 1 0 C1.02288712 41.6490859 1.04050879 83.29817108 1.05106533 124.94726202 C1.05231604 129.8639299 1.05361036 134.78059776 1.05493164 139.69726562 C1.05519395 140.67608879 1.05545626 141.65491195 1.05572652 142.66339642 C1.06007824 158.51391669 1.06796306 174.36443334 1.0771528 190.21495146 C1.08650317 206.47812833 1.09205855 222.7413033 1.09408849 239.00448275 C1.09546084 249.04031725 1.09979588 259.07614151 1.10791647 269.11197287 C1.11320097 275.99320989 1.1148004 282.8744416 1.11350138 289.7556805 C1.11286067 293.72620106 1.11384534 297.6967037 1.11920547 301.66722107 C1.12407964 305.30434703 1.12431227 308.94144307 1.12089889 312.57857043 C1.12027782 314.51323807 1.12458355 316.44790537 1.12908131 318.38256788 C1.11882116 324.35238813 0.91928752 330.09842499 0 336 C-0.66 336 -1.32 336 -2 336 C-2.33 335.34 -2.66 334.68 -3 334 C-3.66 334.66 -4.32 335.32 -5 336 C-5.92132214 332.86892175 -6.1196699 330.08101004 -6.10743046 326.8225975 C-6.10593811 325.76961464 -6.10444576 324.71663177 -6.10290819 323.63174033 C-6.0961044 322.47610721 -6.08930061 321.32047409 -6.08229065 320.12982178 C-6.07906152 318.90133837 -6.07583239 317.67285496 -6.07250541 316.40714478 C-6.06251593 312.99567588 -6.0479716 309.58428088 -6.03152263 306.1728406 C-6.01489073 302.49463381 -6.00410567 298.81640938 -5.99261475 295.13818359 C-5.97190203 288.76487461 -5.9474752 282.3915885 -5.92053413 276.01830292 C-5.88158711 266.80357329 -5.84822844 257.58883011 -5.81623887 248.37407401 C-5.76418741 233.42417127 -5.70760902 218.47428922 -5.64819336 203.52441406 C-5.59048221 189.00098476 -5.53489711 174.47754988 -5.48217773 159.95410156 C-5.47892802 159.05905378 -5.4756783 158.164006 -5.4723301 157.24183556 C-5.45604055 152.75169685 -5.43979286 148.26155799 -5.42356598 143.77141905 C-5.28886848 106.51425377 -5.14682825 69.25711934 -5 32 C-4.34 32 -3.68 32 -3 32 C-2.08342019 37.38490641 -1.88861841 42.54230189 -2 48 C-2.66 48 -3.32 48 -4 48 C-3.9278125 48.969375 -3.855625 49.93875 -3.78125 50.9375 C-3.09662052 60.64190937 -2.88359186 70.27345357 -3 80 C-2.34 80 -1.68 80 -1 80 C-0.67 53.6 -0.34 27.2 0 0 Z " fill="#040C23" transform="translate(366,16)"/>
<path d="M0 0 C4.2742558 1.5830577 6.26531794 4.50568404 9 8 C7.50163895 11.11198065 5.80066242 14.0534615 4 17 C6.92879371 16.37240135 9.36095629 15.41377341 12 14 C12 13.34 12 12.68 12 12 C13.32 12.66 14.64 13.32 16 14 C14.56951306 17.18283344 12.80982757 19.57915658 10.5 22.1875 C9.58734375 23.22970703 9.58734375 23.22970703 8.65625 24.29296875 C7 26 7 26 5 27 C5.33 28.32 5.66 29.64 6 31 C10.68445462 29.07298571 13.43805671 25.48172866 16.78125 21.80078125 C19 20 19 20 21.28125 20.23046875 C21.8484375 20.48441406 22.415625 20.73835938 23 21 C22.57270986 23.47828283 22.28174873 24.72952122 20.4375 26.5 C18.53872976 28.13505943 18.53872976 28.13505943 19 32 C19.99 32 20.98 32 22 32 C22 31.34 22 30.68 22 30 C22.66 30 23.32 30 24 30 C24.66 28.68 25.32 27.36 26 26 C29.83146596 27.56096761 32.28148054 29.91411305 35 33 C35.8203125 34.9609375 35.8203125 34.9609375 36 37 C34.85546875 38.703125 34.85546875 38.703125 33.1875 40.25 C32.37345703 41.03117187 32.37345703 41.03117187 31.54296875 41.828125 C30 43 30 43 28 43 C28 43.66 28 44.32 28 45 C27.34 45 26.68 45 26 45 C26 44.34 26 43.68 26 43 C25.34 43 24.68 43 24 43 C23.67 42.34 23.34 41.68 23 41 C21.68 41 20.36 41 19 41 C19.27617533 42.94074861 19.27617533 42.94074861 20 45 C20.99 45.66 21.98 46.32 23 47 C22.6875 48.9375 22.6875 48.9375 22 51 C21.01 51.33 20.02 51.66 19 52 C18.54109375 51.46890625 18.0821875 50.9378125 17.609375 50.390625 C14.50506283 46.81675301 11.41818688 43.28145941 8 40 C6.515 40.495 6.515 40.495 5 41 C5.47409648 45.31730413 8.03396703 47.33647461 11.0625 50.25 C11.98160156 51.14203125 12.90070313 52.0340625 13.84765625 52.953125 C14.91306641 53.96632813 14.91306641 53.96632813 16 55 C15.34 56.32 14.68 57.64 14 59 C13.34 59 12.68 59 12 59 C12 58.34 12 57.68 12 57 C10.68 56.34 9.36 55.68 8 55 C8 54.34 8 53.68 8 53 C6.515 53.495 6.515 53.495 5 54 C5.59927826 57.35595828 6.84622436 59.37801226 9 62 C7.43977363 65.82964655 5.12444429 68.32190489 2 71 C-2 71 -2 71 -3.921875 69.46875 C-4.52515625 68.8190625 -5.1284375 68.169375 -5.75 67.5 C-6.36359375 66.8503125 -6.9771875 66.200625 -7.609375 65.53125 C-8.29773438 64.77328125 -8.29773438 64.77328125 -9 64 C-8.04516151 61.54470101 -7.08052812 59.15658246 -5.875 56.8125 C-4.85508364 55.03525867 -4.85508364 55.03525867 -5 53 C-5.48210937 53.433125 -5.96421875 53.86625 -6.4609375 54.3125 C-7.09257813 54.869375 -7.72421875 55.42625 -8.375 56 C-9.00148438 56.556875 -9.62796875 57.11375 -10.2734375 57.6875 C-12 59 -12 59 -14 59 C-14 58.34 -14 57.68 -14 57 C-14.66 57 -15.32 57 -16 57 C-14.07298571 52.31554538 -10.48172866 49.56194329 -6.80078125 46.21875 C-6.20652344 45.4865625 -5.61226562 44.754375 -5 44 C-5.33 42.68 -5.66 41.36 -6 40 C-8.64 40.66 -11.28 41.32 -14 42 C-16.06520632 38.90219052 -16.29477024 38.0459519 -16.3125 34.5 C-16.32925781 33.7265625 -16.34601563 32.953125 -16.36328125 32.15625 C-15.92078843 29.52984103 -15.02185443 28.66442897 -13 27 C-10.5 28.375 -10.5 28.375 -8 30 C-8 30.66 -8 31.32 -8 32 C-7.01 32 -6.02 32 -5 32 C-4.66485703 29.6762444 -4.66485703 29.6762444 -5 27 C-6.72093376 24.75010662 -6.72093376 24.75010662 -9 22.8125 C-10.36368534 21.57429265 -11.70478951 20.30966596 -13 19 C-13 18.34 -13 17.68 -13 17 C-13.99 16.67 -14.98 16.34 -16 16 C-16 15.34 -16 14.68 -16 14 C-13.6875 13.3125 -13.6875 13.3125 -11 13 C-9.1875 14.3125 -9.1875 14.3125 -8 16 C-8 16.66 -8 17.32 -8 18 C-7.01 17.67 -6.02 17.34 -5 17 C-5.43504858 14.47671825 -5.70922925 13.26840377 -7.625 11.5 C-9 10 -9 10 -9.0625 7.9375 C-8 6 -8 6 -4.9375 4.75 C-3.968125 4.5025 -2.99875 4.255 -2 4 C-1.67 5.98 -1.34 7.96 -1 10 C-0.01 9.67 0.98 9.34 2 9 C1.484375 8.071875 0.96875 7.14375 0.4375 6.1875 C-1 3 -1 3 0 0 Z " fill="#E7F3F6" transform="translate(128,143)"/>
<path d="M0 0 C114.18 0 228.36 0 346 0 C346 0.33 346 0.66 346 1 C232.15 1 118.3 1 1 1 C1 110.89 1 220.78 1 334 C113.86 334 226.72 334 343 334 C341.74458443 331.48916886 340.49936512 331.12874554 338 330 C339.65 330 341.3 330 343 330 C342.96519531 329.30132812 342.93039062 328.60265625 342.89453125 327.8828125 C342.86746094 326.97273438 342.84039062 326.06265625 342.8125 325.125 C342.77769531 324.22007812 342.74289062 323.31515625 342.70703125 322.3828125 C342.80371094 321.59648437 342.90039062 320.81015625 343 320 C343.99 319.34 344.98 318.68 346 318 C346 323.61 346 329.22 346 335 C231.82 335 117.64 335 0 335 C0 224.45 0 113.9 0 0 Z " fill="#2B659F" transform="translate(14,14)"/>
<path d="M0 0 C0.66 0 1.32 0 2 0 C2 110.22 2 220.44 2 334 C116.18 334 230.36 334 348 334 C348 334.33 348 334.66 348 335 C233.16 335 118.32 335 0 335 C-1.04292774 331.87121679 -1.1185633 329.72760412 -1.10743046 326.44588947 C-1.10593811 325.283429 -1.10444576 324.12096852 -1.10290819 322.92328197 C-1.0961044 321.64022566 -1.08930061 320.35716935 -1.08229065 319.03523254 C-1.07859785 317.66321075 -1.07534832 316.2911877 -1.07250541 314.91916388 C-1.06338663 311.14059497 -1.0479545 307.36207378 -1.03152263 303.58353055 C-1.01491175 299.51198156 -1.00411155 295.44041676 -0.99261475 291.36885071 C-0.97188833 284.31180776 -0.94745956 277.25478536 -0.92053413 270.19776344 C-0.88160956 259.99442559 -0.84824069 249.79107556 -0.81623887 239.58771392 C-0.76416987 223.03445432 -0.70759185 206.48121332 -0.64819336 189.92797852 C-0.59049419 173.84562911 -0.5349092 157.7632747 -0.48217773 141.6809082 C-0.47730316 140.19456666 -0.47730316 140.19456666 -0.4723301 138.67819802 C-0.45604071 133.70729838 -0.43979298 128.7363986 -0.42356598 123.76549876 C-0.28883865 82.51030956 -0.14680001 41.25514789 0 0 Z " fill="#132D57" transform="translate(12,15)"/>
<path d="M0 0 C2.9375 1.5 2.9375 1.5 5 3 C4.67 3.66 4.34 4.32 4 5 C3.01 4.505 3.01 4.505 2 4 C2.99 7.96 2.99 7.96 4 12 C2.68 12.33 1.36 12.66 0 13 C0.495 14.485 0.495 14.485 1 16 C0.91478259 17.89952346 0.76270916 19.79663573 0.5625 21.6875 C0.46066406 22.68136719 0.35882813 23.67523437 0.25390625 24.69921875 C0.12822266 25.83810547 0.12822266 25.83810547 0 27 C-0.33 27 -0.66 27 -1 27 C-1.33 56.04 -1.66 85.08 -2 115 C-2.33 115 -2.66 115 -3 115 C-3 107.08 -3 99.16 -3 91 C-3.66 91 -4.32 91 -5 91 C-5.79585256 80.312837 -6.12825004 69.71600323 -6 59 C-5.34 59 -4.68 59 -4 59 C-4.33 53.72 -4.66 48.44 -5 43 C-5.66 43 -6.32 43 -7 43 C-7 142 -7 241 -7 343 C-7.33 343 -7.66 343 -8 343 C-8 232.45 -8 121.9 -8 8 C-10.31 8 -12.62 8 -15 8 C-15 7.67 -15 7.34 -15 7 C-39.09 6.67 -63.18 6.34 -88 6 C-88 5.67 -88 5.34 -88 5 C-62.59 4.67 -37.18 4.34 -11 4 C-10.67 3.01 -10.34 2.02 -10 1 C-6.42365687 -0.19211438 -3.75935317 -0.25926574 0 0 Z " fill="#101D39" transform="translate(368,5)"/>
<path d="M0 0 C3.2175 -0.061875 6.435 -0.12375 9.75 -0.1875 C10.75772461 -0.21481201 11.76544922 -0.24212402 12.80371094 -0.27026367 C14.00688965 -0.28150269 14.00688965 -0.28150269 15.234375 -0.29296875 C16.05131836 -0.3086792 16.86826172 -0.32438965 17.70996094 -0.34057617 C20.57634189 0.08571396 21.90840308 1.02154841 24 3 C24.9702889 5.91086669 25.16467847 7.90223685 25.1875 10.9375 C25.20167969 11.79214844 25.21585938 12.64679688 25.23046875 13.52734375 C24.97821452 16.23373231 24.53353978 17.76016114 23 20 C20.05905278 21.80540926 17.87896482 22.24160763 14.453125 22.1953125 C13.69161133 22.19031738 12.93009766 22.18532227 12.14550781 22.18017578 C10.71223145 22.15286377 10.71223145 22.15286377 9.25 22.125 C4.67125 22.063125 4.67125 22.063125 0 22 C0 14.74 0 7.48 0 0 Z " fill="#2774B5" transform="translate(213,220)"/>
<path d="M0 0 C7.99720609 -0.43445586 13.54014037 0.12905265 19.9375 5.4375 C23.39117715 9.87310496 22.38625738 15.69539858 22 21 C21.31550781 20.69320313 20.63101562 20.38640625 19.92578125 20.0703125 C16.67122494 18.87972715 13.61620914 18.35986796 10.1875 17.875 C9.02605469 17.70742188 7.86460937 17.53984375 6.66796875 17.3671875 C5.78753906 17.24601562 4.90710938 17.12484375 4 17 C3.96261719 16.27554687 3.92523438 15.55109375 3.88671875 14.8046875 C3.50139002 9.13808848 3.015464 4.85096382 0 0 Z " fill="#DFDFE0" transform="translate(370,5)"/>
<path d="M0 0 C0.68449219 0.31710937 1.36898438 0.63421875 2.07421875 0.9609375 C5.39750379 2.14116957 8.29754535 2.41197245 11.8125 2.625 C13.55466797 2.73714844 13.55466797 2.73714844 15.33203125 2.8515625 C16.21246094 2.90054687 17.09289062 2.94953125 18 3 C18.19916016 4.58941406 18.19916016 4.58941406 18.40234375 6.2109375 C18.58053875 7.59898279 18.7589346 8.98700231 18.9375 10.375 C19.02451172 11.07367188 19.11152344 11.77234375 19.20117188 12.4921875 C19.66318128 16.36783575 19.66318128 16.36783575 21 20 C9.36061697 21.03206352 9.36061697 21.03206352 4.875 17.375 C0.89998925 13.23557275 -0.07543652 9.25541142 -0.125 3.625 C-0.08375 2.42875 -0.0425 1.2325 0 0 Z " fill="#DBDCDB" transform="translate(5,360)"/>
<path d="M0 0 C4.2742558 1.5830577 6.26531794 4.50568404 9 8 C7.33091887 11.61634246 5.52763002 14.91067442 3 18 C-0.25 18.375 -0.25 18.375 -3 18 C-3 19.65 -3 21.3 -3 23 C-2.195625 23.226875 -1.39125 23.45375 -0.5625 23.6875 C0.283125 24.120625 1.12875 24.55375 2 25 C2.8125 27.625 2.8125 27.625 3 30 C1.35 30.33 -0.3 30.66 -2 31 C-2 29.68 -2 28.36 -2 27 C-2.87398437 26.85884766 -2.87398437 26.85884766 -3.765625 26.71484375 C-6.49893336 25.84037621 -7.75839814 24.60942413 -9.75 22.5625 C-10.36359375 21.94503906 -10.9771875 21.32757813 -11.609375 20.69140625 C-13 19 -13 19 -13 17 C-13.99 16.67 -14.98 16.34 -16 16 C-16 15.34 -16 14.68 -16 14 C-13.6875 13.3125 -13.6875 13.3125 -11 13 C-9.1875 14.3125 -9.1875 14.3125 -8 16 C-8 16.66 -8 17.32 -8 18 C-7.01 17.67 -6.02 17.34 -5 17 C-5.43504858 14.47671825 -5.70922925 13.26840377 -7.625 11.5 C-9 10 -9 10 -9.0625 7.9375 C-8 6 -8 6 -4.9375 4.75 C-3.968125 4.5025 -2.99875 4.255 -2 4 C-1.67 5.98 -1.34 7.96 -1 10 C-0.01 9.67 0.98 9.34 2 9 C1.484375 8.071875 0.96875 7.14375 0.4375 6.1875 C-1 3 -1 3 0 0 Z " fill="#E0EDF3" transform="translate(128,143)"/>
<path d="M0 0 C1.32 0.66 2.64 1.32 4 2 C3.34 4.31 2.68 6.62 2 9 C2.99 9 3.98 9 5 9 C6.38671875 10.53125 6.38671875 10.53125 7.6875 12.5 C8.12449219 13.1496875 8.56148437 13.799375 9.01171875 14.46875 C9.50091797 15.22671875 9.50091797 15.22671875 10 16 C8.43977363 19.82964655 6.12444429 22.32190489 3 25 C-1 25 -1 25 -2.921875 23.46875 C-3.52515625 22.8190625 -4.1284375 22.169375 -4.75 21.5 C-5.36359375 20.8503125 -5.9771875 20.200625 -6.609375 19.53125 C-7.06828125 19.0259375 -7.5271875 18.520625 -8 18 C-5.39090909 11.29090909 -5.39090909 11.29090909 -4 9 C-3.01 8.67 -2.02 8.34 -1 8 C-1.66 7.67 -2.32 7.34 -3 7 C-2.67 5.35 -2.34 3.7 -2 2 C-1.34 2 -0.68 2 0 2 C0 1.34 0 0.68 0 0 Z " fill="#E4F0F3" transform="translate(127,189)"/>
<path d="M0 0 C1.32 0.66 2.64 1.32 4 2 C3.55085263 6.37657556 0.65308771 8.86225815 -2.3125 11.8125 C-2.79912109 12.32748047 -3.28574219 12.84246094 -3.78710938 13.37304688 C-5.23828125 14.83203125 -5.23828125 14.83203125 -8 17 C-9.32 16.67 -10.64 16.34 -12 16 C-15.96 16 -19.92 16 -24 16 C-24.33 32.5 -24.66 49 -25 66 C-25.33 66 -25.66 66 -26 66 C-26 48.84 -26 31.68 -26 14 C-21.38 13.67 -16.76 13.34 -12 13 C-11.34 12.01 -10.68 11.02 -10 10 C-9.34 10 -8.68 10 -8 10 C-7.690625 9.195625 -7.690625 9.195625 -7.375 8.375 C-5.42003056 4.9982346 -2.81776305 2.69525161 0 0 Z " fill="#326E9F" transform="translate(120,182)"/>
<path d="M0 0 C0 27.06 0 54.12 0 82 C-0.99 81.67 -1.98 81.34 -3 81 C-3 54.6 -3 28.2 -3 1 C-1 0 -1 0 0 0 Z " fill="#3574A9" transform="translate(196,205)"/>
<path d="M0 0 C3.83146596 1.56096761 6.28148054 3.91411305 9 7 C9.8203125 8.9609375 9.8203125 8.9609375 10 11 C8.85546875 12.703125 8.85546875 12.703125 7.1875 14.25 C6.64480469 14.77078125 6.10210937 15.2915625 5.54296875 15.828125 C4 17 4 17 2 17 C2 17.66 2 18.32 2 19 C1.34 19 0.68 19 0 19 C0 18.34 0 17.68 0 17 C-0.66 17 -1.32 17 -2 17 C-2.33 16.34 -2.66 15.68 -3 15 C-4.32 15 -5.64 15 -7 15 C-7.66 15.66 -8.32 16.32 -9 17 C-9 15.68 -9 14.36 -9 13 C-7.02 13 -5.04 13 -3 13 C-3.33 11.68 -3.66 10.36 -4 9 C-3.01 8.67 -2.02 8.34 -1 8 C-0.26676204 5.98491642 -0.26676204 5.98491642 0 4 C0.99 4.33 1.98 4.66 3 5 C2.67 4.34 2.34 3.68 2 3 C-0.02463255 2.34786708 -0.02463255 2.34786708 -2 2 C-1.34 1.34 -0.68 0.68 0 0 Z " fill="#DAECF0" transform="translate(154,169)"/>
<path d="M0 0 C2.5 1.375 2.5 1.375 5 3 C5 3.66 5 4.32 5 5 C6.65 4.67 8.3 4.34 10 4 C9.67 5.98 9.34 7.96 9 10 C9.99 10.33 10.98 10.66 12 11 C11.34 12.98 10.68 14.96 10 17 C9.01 15.68 8.02 14.36 7 13 C4.36 13.66 1.72 14.32 -1 15 C-3.06520632 11.90219052 -3.29477024 11.0459519 -3.3125 7.5 C-3.32925781 6.7265625 -3.34601563 5.953125 -3.36328125 5.15625 C-2.92078843 2.52984103 -2.02185443 1.66442897 0 0 Z " fill="#E8F2F5" transform="translate(115,170)"/>
<path d="M0 0 C4.2742558 1.5830577 6.26531794 4.50568404 9 8 C7.55746343 11.36591866 5.66735273 13.51047079 3 16 C3 15.01 3 14.02 3 13 C1.7625 13.2475 0.525 13.495 -0.75 13.75 C-4.03161925 14.16384541 -4.68060211 14.2103352 -7.5625 12.3125 C-9 10 -9 10 -9.125 7.875 C-7.4121231 5.02020516 -5.11293538 4.79479201 -2 4 C-1.67 5.98 -1.34 7.96 -1 10 C-0.01 9.67 0.98 9.34 2 9 C1.484375 8.071875 0.96875 7.14375 0.4375 6.1875 C-1 3 -1 3 0 0 Z " fill="#F0F5F2" transform="translate(128,143)"/>
<path d="M0 0 C0.556875 0.268125 1.11375 0.53625 1.6875 0.8125 C1.26020986 3.29078283 0.96924873 4.54202122 -0.875 6.3125 C-2.77377024 7.94755943 -2.77377024 7.94755943 -2.3125 11.8125 C-1.3225 11.8125 -0.3325 11.8125 0.6875 11.8125 C1.0175 11.1525 1.3475 10.4925 1.6875 9.8125 C1.3575 11.1325 1.0275 12.4525 0.6875 13.8125 C-0.3025 13.8125 -1.2925 13.8125 -2.3125 13.8125 C-2.6425 14.8025 -2.9725 15.7925 -3.3125 16.8125 C-8.0625 17.9375 -8.0625 17.9375 -10.3125 16.8125 C-9.80646008 14.64375748 -9.31266187 12.81282373 -8.3125 10.8125 C-9.9625 11.1425 -11.6125 11.4725 -13.3125 11.8125 C-3.18946908 -0.2586056 -3.18946908 -0.2586056 0 0 Z " fill="#E4F1F5" transform="translate(149.3125,163.1875)"/>
<path d="M0 0 C0.66 0 1.32 0 2 0 C2.33 0.66 2.66 1.32 3 2 C4.61841797 2.03758423 4.61841797 2.03758423 6.26953125 2.07592773 C10.30267617 2.17066051 14.33567503 2.27071576 18.36865234 2.37231445 C20.10852625 2.4154158 21.84843573 2.45710637 23.58837891 2.49731445 C26.10069465 2.55562321 28.61283534 2.61913722 31.125 2.68359375 C32.27705933 2.70866249 32.27705933 2.70866249 33.45239258 2.73423767 C38.362638 2.86655427 43.1342355 3.3217858 48 4 C48 3.34 48 2.68 48 2 C48.99 2 49.98 2 51 2 C51 2.99 51 3.98 51 5 C50.34 5 49.68 5 49 5 C49 5.99 49 6.98 49 8 C48.04859131 7.67854004 47.09718262 7.35708008 46.11694336 7.02587891 C41.47057803 5.70475142 36.93344225 5.64882001 32.12890625 5.5859375 C31.206577 5.56657135 30.28424774 5.5472052 29.33396912 5.5272522 C26.41023789 5.4678388 23.48646647 5.42122491 20.5625 5.375 C18.5709471 5.33678498 16.5794101 5.29773123 14.58789062 5.2578125 C9.72539077 5.16216896 4.86281362 5.07799779 0 5 C0 3.35 0 1.7 0 0 Z " fill="#3072AB" transform="translate(196,200)"/>
<path d="M0 0 C1.32 0.66 2.64 1.32 4 2 C3.34 4.31 2.68 6.62 2 9 C2.66 9.33 3.32 9.66 4 10 C4.8125 12.25 4.8125 12.25 5 15 C3.5625 17.8125 3.5625 17.8125 2 20 C-0.475 19.01 -0.475 19.01 -3 18 C-3 17.01 -3 16.02 -3 15 C-4.32 14.67 -5.64 14.34 -7 14 C-6.505 13.566875 -6.01 13.13375 -5.5 12.6875 C-3.66781808 11.00259517 -3.66781808 11.00259517 -4 8 C-3.01 8 -2.02 8 -1 8 C-1.66 7.67 -2.32 7.34 -3 7 C-2.67 5.35 -2.34 3.7 -2 2 C-1.34 2 -0.68 2 0 2 C0 1.34 0 0.68 0 0 Z " fill="#EBF5F6" transform="translate(127,189)"/>
<path d="M0 0 C1.75390625 1.6796875 1.75390625 1.6796875 3.5625 3.875 C4.16191406 4.59429687 4.76132813 5.31359375 5.37890625 6.0546875 C5.91386719 6.69664062 6.44882813 7.33859375 7 8 C7.66 8.66 8.32 9.32 9 10 C8.625 12.625 8.625 12.625 8 15 C7.01 15 6.02 15 5 15 C5 14.34 5 13.68 5 13 C4.360625 12.731875 3.72125 12.46375 3.0625 12.1875 C1 11 1 11 0 8 C-0.99 7.67 -1.98 7.34 -3 7 C-6 3.55555556 -6 3.55555556 -6 1 C-3 0 -3 0 0 0 Z " fill="#2C72AD" transform="translate(115,160)"/>
<path d="M0 0 C0.99 0.33 1.98 0.66 3 1 C3.7166207 3.31847874 4.38242027 5.65319703 5 8 C5.66 8.66 6.32 9.32 7 10 C4.69 11.98 2.38 13.96 0 16 C-2.475 15.01 -2.475 15.01 -5 14 C-4.979375 13.21625 -4.95875 12.4325 -4.9375 11.625 C-4.81315937 9.01885039 -4.81315937 9.01885039 -6 7 C-5.67 6.01 -5.34 5.02 -5 4 C-4.34 4 -3.68 4 -3 4 C-3 5.32 -3 6.64 -3 8 C-2.01 8 -1.02 8 0 8 C0.33 7.34 0.66 6.68 1 6 C0.67 5.67 0.34 5.34 0 5 C-0.04063832 3.33382885 -0.042721 1.66611905 0 0 Z " fill="#DDEAED" transform="translate(129,166)"/>
<path d="M0 0 C3.45201639 1.47721422 5.64961936 3.43794001 8.25 6.125 C8.95640625 6.84945312 9.6628125 7.57390625 10.390625 8.3203125 C11.18726563 9.15175781 11.18726563 9.15175781 12 10 C11.01 10.495 11.01 10.495 10 11 C10.33 12.65 10.66 14.3 11 16 C7.41597305 14.46751951 4.97149866 12.3325399 2.1875 9.625 C0.97126953 8.46871094 0.97126953 8.46871094 -0.26953125 7.2890625 C-2 5 -2 5 -1.82421875 2.7734375 C-1 1 -1 1 0 0 Z " fill="#2971AB" transform="translate(134,182)"/>
<path d="M0 0 C1.32 0.33 2.64 0.66 4 1 C3.43410156 1.45890625 2.86820313 1.9178125 2.28515625 2.390625 C1.55167969 3.00421875 0.81820312 3.6178125 0.0625 4.25 C-1.03384766 5.15492188 -1.03384766 5.15492188 -2.15234375 6.078125 C-4.1133043 8.11785563 -4.81989343 9.18801349 -5 12 C-4.34 12.66 -3.68 13.32 -3 14 C-2.34 14.66 -1.68 15.32 -1 16 C-1.25 18.25 -1.25 18.25 -2 20 C-2.99 20 -3.98 20 -5 20 C-5.45375 19.34 -5.9075 18.68 -6.375 18 C-6.91125 17.34 -7.4475 16.68 -8 16 C-10.62625139 15.66574265 -10.62625139 15.66574265 -13 16 C-13 14.68 -13 13.36 -13 12 C-11.68 12 -10.36 12 -9 12 C-8.79375 11.278125 -8.5875 10.55625 -8.375 9.8125 C-6.54877291 6.0770355 -4.25713193 4.56412513 -1 2 C-0.67 1.34 -0.34 0.68 0 0 Z " fill="#2D71AA" transform="translate(125,141)"/>
<path d="M0 0 C3 0 3 0 5.1875 1.875 C7 4 7 4 7 6 C7.99 5.67 8.98 5.34 10 5 C10 5.66 10 6.32 10 7 C8.35 7 6.7 7 5 7 C5.28875 7.886875 5.5775 8.77375 5.875 9.6875 C6 13 6 13 4.8359375 14.546875 C3.25 15.9375 3.25 15.9375 0 18 C-0.99 17.67 -1.98 17.34 -3 17 C-2.01 16.67 -1.02 16.34 0 16 C1.37334617 13.71108972 2.15250816 11.54247553 3 9 C2.34 8.195625 1.68 7.39125 1 6.5625 C-1 4 -1 4 -0.75 1.6875 C-0.5025 1.130625 -0.255 0.57375 0 0 Z " fill="#3678AD" transform="translate(133,196)"/>
<path d="M0 0 C0.99 0.66 1.98 1.32 3 2 C1.824375 1.95875 0.64875 1.9175 -0.5625 1.875 C-4.72409674 1.86016365 -8.06487667 2.68829222 -12 4 C-11.67 6.97 -11.34 9.94 -11 13 C-10.030625 13.28875 -9.06125 13.5775 -8.0625 13.875 C-5 15 -5 15 -4 17 C-10.47789558 16.38887778 -10.47789558 16.38887778 -12.69921875 14.734375 C-14.77779517 11.96293978 -14.53921837 9.52570322 -14.40234375 6.1640625 C-14 4 -14 4 -12.0625 1.4375 C-8.01557475 -0.46207716 -4.40781286 -0.70987248 0 0 Z " fill="#236A9F" transform="translate(297,219)"/>
<path d="M0 0 C1.125 3.75 1.125 3.75 0 6 C0.66 6.33 1.32 6.66 2 7 C0.8803014 8.00593243 -0.2459412 9.0045849 -1.375 10 C-2.00148438 10.556875 -2.62796875 11.11375 -3.2734375 11.6875 C-5 13 -5 13 -7 13 C-7 12.34 -7 11.68 -7 11 C-7.66 11 -8.32 11 -9 11 C-7.59155282 7.78475695 -5.89655214 5.67816132 -3.375 3.25 C-2.74335937 2.63640625 -2.11171875 2.0228125 -1.4609375 1.390625 C-0.73777344 0.70226562 -0.73777344 0.70226562 0 0 Z " fill="#D9EAEF" transform="translate(121,189)"/>
<path d="M0 0 C0.99 0.33 1.98 0.66 3 1 C3 1.99 3 2.98 3 4 C4.32 4.33 5.64 4.66 7 5 C7.33 6.65 7.66 8.3 8 10 C7.01 10.66 6.02 11.32 5 12 C3.68 11.34 2.36 10.68 1 10 C1 9.01 1 8.02 1 7 C-0.32 6.67 -1.64 6.34 -3 6 C-2.505 5.566875 -2.01 5.13375 -1.5 4.6875 C0.33218192 3.00259517 0.33218192 3.00259517 0 0 Z " fill="#C8DFE8" transform="translate(123,197)"/>
<path d="M0 0 C0.33 0 0.66 0 1 0 C1 5.61 1 11.22 1 17 C0.01 16.67 -0.98 16.34 -2 16 C-2.33 15.34 -2.66 14.68 -3 14 C-5.01669827 12.86649466 -5.01669827 12.86649466 -7 12 C-5.35 12 -3.7 12 -2 12 C-2.02320313 11.30132812 -2.04640625 10.60265625 -2.0703125 9.8828125 C-2.09738281 8.51769531 -2.09738281 8.51769531 -2.125 7.125 C-2.14820313 6.22007812 -2.17140625 5.31515625 -2.1953125 4.3828125 C-2 2 -2 2 0 0 Z " fill="#246CAF" transform="translate(359,332)"/>
<path d="M0 0 C0 0.33 0 0.66 0 1 C-1.98 1.33 -3.96 1.66 -6 2 C-5.67 2.66 -5.34 3.32 -5 4 C-6.65 4 -8.3 4 -10 4 C-10 4.66 -10 5.32 -10 6 C-10.9075 6.433125 -11.815 6.86625 -12.75 7.3125 C-15.43218449 8.70517271 -17.66139605 10.11112757 -20 12 C-20 11.01 -20 10.02 -20 9 C-19.34 9 -18.68 9 -18 9 C-17.67 8.01 -17.34 7.02 -17 6 C-16.34 6 -15.68 6 -15 6 C-15.33 5.01 -15.66 4.02 -16 3 C-10.47239641 0.89424625 -5.93002267 -0.37851209 0 0 Z " fill="#2D75B6" transform="translate(290,201)"/>
<path d="M0 0 C0.85697694 2.57093082 1.48800637 5.04482928 2.0625 7.6875 C2.23910156 8.49574219 2.41570312 9.30398437 2.59765625 10.13671875 C2.73042969 10.75160156 2.86320313 11.36648437 3 12 C-0.75 13.125 -0.75 13.125 -3 12 C-2.49396008 9.83125748 -2.00016187 8.00032373 -1 6 C-2.65 6.33 -4.3 6.66 -6 7 C-4.02 4.69 -2.04 2.38 0 0 Z " fill="#DAEAF0" transform="translate(142,168)"/>
<path d="M0 0 C3.36295835 1.44126786 5.62927102 3.20592655 8 6 C8 6.99 8 7.98 8 9 C7.34 9 6.68 9 6 9 C6 9.66 6 10.32 6 11 C2.82880497 9.90648447 1.99216457 8.9873012 0.1875 6.0625 C-1 3 -1 3 0 0 Z " fill="#EAF2F2" transform="translate(128,143)"/>
<path d="M0 0 C0.99 0.33 1.98 0.66 3 1 C1.90344712 2.31886772 0.79746577 3.62990057 -0.3125 4.9375 C-0.92738281 5.66839844 -1.54226562 6.39929688 -2.17578125 7.15234375 C-4 9 -4 9 -7 10 C-7.66 7.36 -8.32 4.72 -9 2 C-6 1 -6 1 -3.9375 1.5625 C-3.298125 1.706875 -2.65875 1.85125 -2 2 C-1.34 1.34 -0.68 0.68 0 0 Z " fill="#EAF2F7" transform="translate(139,160)"/>
<path d="M0 0 C1.67542976 0.28604898 3.34385343 0.61781233 5 1 C5 1.66 5 2.32 5 3 C5.66 3 6.32 3 7 3 C7 3.66 7 4.32 7 5 C7.66 5 8.32 5 9 5 C9.33 4.34 9.66 3.68 10 3 C10 3.99 10 4.98 10 6 C8.68 6 7.36 6 6 6 C5.34 7.32 4.68 8.64 4 10 C4 9.01 4 8.02 4 7 C3.360625 6.7525 2.72125 6.505 2.0625 6.25 C0 5 0 5 -0.8125 2.9375 C-0.874375 2.298125 -0.93625 1.65875 -1 1 C-0.67 0.67 -0.34 0.34 0 0 Z " fill="#3677AD" transform="translate(147,183)"/>
<path d="M0 0 C2.5 0.3125 2.5 0.3125 5 1 C5.33 1.66 5.66 2.32 6 3 C6.66 3.33 7.32 3.66 8 4 C6.35 5.65 4.7 7.3 3 9 C2.01 8.67 1.02 8.34 0 8 C-0.38063221 5.6739143 -0.71269945 3.33944736 -1 1 C-0.67 0.67 -0.34 0.34 0 0 Z " fill="#E2E9EC" transform="translate(113,176)"/>
<path d="M0 0 C3.16115776 1.36983503 3.9927092 1.9890638 6 5 C5.01 6.485 5.01 6.485 4 8 C4 8.99 4 9.98 4 11 C2.68 11.33 1.36 11.66 0 12 C-2 9 -2 9 -1.625 6.3125 C-1.41875 5.549375 -1.2125 4.78625 -1 4 C0.98 4.495 0.98 4.495 3 5 C2.67 4.34 2.34 3.68 2 3 C-0.02463255 2.34786708 -0.02463255 2.34786708 -2 2 C-1.34 1.34 -0.68 0.68 0 0 Z " fill="#CCE4EF" transform="translate(154,169)"/>
<path d="M0 0 C2.31 0.33 4.62 0.66 7 1 C7 3.97 7 6.94 7 10 C5.02 10.33 3.04 10.66 1 11 C1.66 10.01 2.32 9.02 3 8 C3 7.01 3 6.02 3 5 C2.01 4.34 1.02 3.68 0 3 C0 2.01 0 1.02 0 0 Z " fill="#2F75B3" transform="translate(160,172)"/>
<path d="M0 0 C3.26428949 2.81915911 4.78874091 5.71964448 5.19091797 10.06079102 C5.26836494 12.4396279 5.27279263 14.80756956 5.25 17.1875 C5.25773438 18.00669922 5.26546875 18.82589844 5.2734375 19.66992188 C5.25343208 25.74656792 5.25343208 25.74656792 3 28 C3.03480469 26.96101563 3.06960937 25.92203125 3.10546875 24.8515625 C3.27656657 17.42484763 3.24741567 10.89803353 0.65625 3.8203125 C0 2 0 2 0 0 Z " fill="#D5EDF6" transform="translate(250,214)"/>
<path d="M0 0 C-0.66 1.98 -1.32 3.96 -2 6 C-0.35 6 1.3 6 3 6 C3 6.66 3 7.32 3 8 C2.01 8 1.02 8 0 8 C0.33 8.99 0.66 9.98 1 11 C0.01 11.33 -0.98 11.66 -2 12 C-3.32 10.35 -4.64 8.7 -6 7 C-5.34 6.67 -4.68 6.34 -4 6 C-3.67 5.01 -3.34 4.02 -3 3 C-3.66 3 -4.32 3 -5 3 C-5 2.34 -5 1.68 -5 1 C-3 0 -3 0 0 0 Z " fill="#E2EDF0" transform="translate(141,174)"/>
<path d="M0 0 C-0.49831724 3.68754757 -1.10067643 5.60490662 -4 8 C-5.32 7.34 -6.64 6.68 -8 6 C-7.6875 4.125 -7.6875 4.125 -7 2 C-4 0 -4 0 0 0 Z " fill="#2D6FA6" transform="translate(140,167)"/>
<path d="M0 0 C1.32 1.65 2.64 3.3 4 5 C1.03 7.475 1.03 7.475 -2 10 C-2 9.01 -2 8.02 -2 7 C-3.32 6.67 -4.64 6.34 -6 6 C-4.02 4.02 -2.04 2.04 0 0 Z " fill="#367DB7" transform="translate(142,160)"/>
<path d="M0 0 C0.66 0.99 1.32 1.98 2 3 C1.67 3.598125 1.34 4.19625 1 4.8125 C-0.20787988 7.05386471 -0.20787988 7.05386471 0 10 C0.66 10 1.32 10 2 10 C1.34 11.32 0.68 12.64 0 14 C-0.8971875 13.2884375 -0.8971875 13.2884375 -1.8125 12.5625 C-4.00382924 10.83534256 -4.00382924 10.83534256 -7 10 C-6.34 10 -5.68 10 -5 10 C-4.731875 9.46375 -4.46375 8.9275 -4.1875 8.375 C-2.79166667 5.58333333 -1.39583333 2.79166667 0 0 Z " fill="#3679B3" transform="translate(253,242)"/>
<path d="M0 0 C1.65 0.99 3.3 1.98 5 3 C4.75 4.875 4.75 4.875 4 7 C1.9375 8.25 1.9375 8.25 0 9 C0 8.34 0 7.68 0 7 C-0.99 6.67 -1.98 6.34 -3 6 C-2.34 6 -1.68 6 -1 6 C-1.33 4.68 -1.66 3.36 -2 2 C-1.34 2 -0.68 2 0 2 C0 1.34 0 0.68 0 0 Z " fill="#E1F0F6" transform="translate(159,174)"/>
<path d="M0 0 C2.3125 1.375 2.3125 1.375 4 3 C3.67 4.65 3.34 6.3 3 8 C2.01 8 1.02 8 0 8 C0 7.34 0 6.68 0 6 C-0.9590625 5.566875 -0.9590625 5.566875 -1.9375 5.125 C-4 4 -4 4 -5 2 C-2.75 0.8125 -2.75 0.8125 0 0 Z " fill="#3F7DB4" transform="translate(120,167)"/>
<path d="M0 0 C0.66 0.33 1.32 0.66 2 1 C1.67 1.99 1.34 2.98 1 4 C2.37492804 7.1668838 2.37492804 7.1668838 4 10 C2.02 10.99 2.02 10.99 0 12 C-1 11 -1 11 -1.0625 7.9375 C-1.041875 6.968125 -1.02125 5.99875 -1 5 C-2.32 5.33 -3.64 5.66 -5 6 C-3.35 4.02 -1.7 2.04 0 0 Z " fill="#C9E1EE" transform="translate(127,142)"/>
<path d="M0 0 C0.33 0.66 0.66 1.32 1 2 C1.99 1.67 2.98 1.34 4 1 C3.34 2.98 2.68 4.96 2 7 C1.48953125 6.84660156 0.9790625 6.69320312 0.453125 6.53515625 C-2.7749338 5.83094597 -5.95418001 5.65111796 -9.25 5.4375 C-10.51328125 5.35371094 -11.7765625 5.26992187 -13.078125 5.18359375 C-14.04234375 5.12300781 -15.0065625 5.06242188 -16 5 C-16 4.67 -16 4.34 -16 4 C-15.01257813 3.96261719 -14.02515625 3.92523438 -13.0078125 3.88671875 C-11.72648437 3.82097656 -10.44515625 3.75523437 -9.125 3.6875 C-7.84882812 3.62949219 -6.57265625 3.57148438 -5.2578125 3.51171875 C-4.18273437 3.34285156 -3.10765625 3.17398438 -2 3 C-1.34 2.01 -0.68 1.02 0 0 Z " fill="#387BB4" transform="translate(110,192)"/>
<path d="M0 0 C0.99 0 1.98 0 3 0 C3 0.66 3 1.32 3 2 C4.65 1.67 6.3 1.34 8 1 C8 2.32 8 3.64 8 5 C5 7 5 7 2 7 C0.5393715 4.35261084 0 3.10551666 0 0 Z " fill="#1E6CB0" transform="translate(144,193)"/>
<path d="M0 0 C0.99 0.33 1.98 0.66 3 1 C3 1.66 3 2.32 3 3 C2.01 3 1.02 3 0 3 C-0.33 3.99 -0.66 4.98 -1 6 C-1.99 6.495 -1.99 6.495 -3 7 C-3.65213292 9.02463255 -3.65213292 9.02463255 -4 11 C-5.32 10.34 -6.64 9.68 -8 9 C-7.67 7.68 -7.34 6.36 -7 5 C-6.01 5 -5.02 5 -4 5 C-3.566875 4.0409375 -3.566875 4.0409375 -3.125 3.0625 C-2 1 -2 1 0 0 Z M-7 7 C-6 9 -6 9 -6 9 Z " fill="#F6FCF7" transform="translate(154,171)"/>
<path d="M0 0 C0.556875 0.309375 1.11375 0.61875 1.6875 0.9375 C4.12540433 2.05761821 6.36224186 2.56037364 9 3 C9 2.34 9 1.68 9 1 C9.99 0.67 10.98 0.34 12 0 C10.55746343 3.36591866 8.66735273 5.51047079 6 8 C6 7.01 6 6.02 6 5 C3.69 4.67 1.38 4.34 -1 4 C-0.67 2.68 -0.34 1.36 0 0 Z " fill="#CFE5EC" transform="translate(125,151)"/>
<path d="M0 0 C0.66 0.33 1.32 0.66 2 1 C2.33 1 2.66 1 3 1 C3.66 1.33 4.32 1.66 5 2 C3.625 4 3.625 4 2 6 C1.34 6 0.68 6 0 6 C0 6.66 0 7.32 0 8 C-0.99 8 -1.98 8 -3 8 C-3.75 6.25 -3.75 6.25 -4 4 C-2.0625 1.75 -2.0625 1.75 0 0 Z " fill="#2D71A7" transform="translate(150,167)"/>
<path d="M0 0 C1.98 1.65 3.96 3.3 6 5 C5.34 6.32 4.68 7.64 4 9 C3.34 9 2.68 9 2 9 C2 8.34 2 7.68 2 7 C0.68 6.34 -0.64 5.68 -2 5 C-1.01 4.67 -0.02 4.34 1 4 C0.67 2.68 0.34 1.36 0 0 Z " fill="#D8EAF3" transform="translate(138,193)"/>
<path d="M0 0 C2.475 0.99 2.475 0.99 5 2 C5 2.99 5 3.98 5 5 C3.35 5.66 1.7 6.32 0 7 C-0.66 6.34 -1.32 5.68 -2 5 C-2 4.01 -2 3.02 -2 2 C-1.34 2 -0.68 2 0 2 C0 1.34 0 0.68 0 0 Z " fill="#3B76A8" transform="translate(127,175)"/>
<path d="M0 0 C0.33 0.99 0.66 1.98 1 3 C1.66 3.66 2.32 4.32 3 5 C2.01 6.485 2.01 6.485 1 8 C-2.625 8.1875 -2.625 8.1875 -6 8 C-6 6 -6 6 -3.5625 3.4375 C-2.716875 2.633125 -1.87125 1.82875 -1 1 C-0.67 0.67 -0.34 0.34 0 0 Z " fill="#3477AF" transform="translate(318,276)"/>
<path d="M0 0 C2.31 0 4.62 0 7 0 C7 0.99 7 1.98 7 3 C9.64 3.33 12.28 3.66 15 4 C15 4.33 15 4.66 15 5 C9.01006953 5.3152595 5.36439644 4.68219822 0 2 C0 1.34 0 0.68 0 0 Z " fill="#2E73A6" transform="translate(281,268)"/>
<path d="M0 0 C0.99 0 1.98 0 3 0 C3 0.66 3 1.32 3 2 C4.0725 1.95875 5.145 1.9175 6.25 1.875 C9.65747485 1.9885825 11.20739631 2.21273364 14 4 C14 4.66 14 5.32 14 6 C8.72 4.68 3.44 3.36 -2 2 C-1.34 1.34 -0.68 0.68 0 0 Z " fill="#2E72A5" transform="translate(296,235)"/>
<path d="M0 0 C0.33 0.99 0.66 1.98 1 3 C2.31018441 3.71108299 3.64777819 4.37253017 5 5 C6.28016835 6.00435972 7.53128122 7.04690261 8.75 8.125 C9.67039062 8.93324219 9.67039062 8.93324219 10.609375 9.7578125 C11.06828125 10.16773438 11.5271875 10.57765625 12 11 C11.67 11.99 11.34 12.98 11 14 C10.67 13.01 10.34 12.02 10 11 C8.67661368 10.31379969 7.34050052 9.65213539 6 9 C3.75899129 7.46581311 1.98885268 5.89845029 0 4 C0 2.68 0 1.36 0 0 Z " fill="#286DA7" transform="translate(261,273)"/>
<path d="M0 0 C3.01198042 1.50599021 3.57241758 4.02586996 5 7 C5.99 8.485 5.99 8.485 7 10 C5.35 9.67 3.7 9.34 2 9 C1.67 9.66 1.34 10.32 1 11 C0.4254048 7.26513121 0 3.78706732 0 0 Z " fill="#3378B1" transform="translate(265,236)"/>
<path d="M0 0 C0.66 0.99 1.32 1.98 2 3 C0.71937515 4.7074998 -0.61767557 6.37373596 -2 8 C-2.66 8 -3.32 8 -4 8 C-4 8.66 -4 9.32 -4 10 C-4.66 10 -5.32 10 -6 10 C-6.33 9.01 -6.66 8.02 -7 7 C-6.01 6.67 -5.02 6.34 -4 6 C-2.60287726 4.04402816 -1.26220093 2.04563599 0 0 Z " fill="#E5F3F3" transform="translate(316,274)"/>
<path d="M0 0 C0.33 0 0.66 0 1 0 C1.12375 1.093125 1.2475 2.18625 1.375 3.3125 C1.75464801 7.07381802 1.75464801 7.07381802 4 10 C4.125 12.6875 4.125 12.6875 4 15 C3.01 15.495 3.01 15.495 2 16 C-0.27141454 10.60539047 -0.20413361 5.73842251 0 0 Z " fill="#D3EAF5" transform="translate(265,224)"/>
<path d="M0 0 C0.66 0.33 1.32 0.66 2 1 C3.00496852 4.01490557 3.10335303 6.04181692 3.0625 9.1875 C3.05347656 10.08855469 3.04445312 10.98960937 3.03515625 11.91796875 C3.02355469 12.60503906 3.01195312 13.29210937 3 14 C2.67 14 2.34 14 2 14 C1.67 11.69 1.34 9.38 1 7 C0.34 7 -0.32 7 -1 7 C-1.66 5.02 -2.32 3.04 -3 1 C-2.01 0.67 -1.02 0.34 0 0 Z " fill="#5090C2" transform="translate(235,222)"/>
<path d="M0 0 C1.65 0.99 3.3 1.98 5 3 C4.6875 4.9375 4.6875 4.9375 4 7 C3.01 7.33 2.02 7.66 1 8 C0.01 6.35 -0.98 4.7 -2 3 C-1.34 3 -0.68 3 0 3 C0 2.01 0 1.02 0 0 Z " fill="#DFF0F7" transform="translate(146,187)"/>
<path d="M0 0 C0.66 0 1.32 0 2 0 C2.33 5.28 2.66 10.56 3 16 C1.68 15.34 0.36 14.68 -1 14 C-0.67 13.34 -0.34 12.68 0 12 C0.07065617 9.95944995 0.08421976 7.91665743 0.0625 5.875 C0.05347656 4.77929688 0.04445312 3.68359375 0.03515625 2.5546875 C0.02355469 1.71164063 0.01195312 0.86859375 0 0 Z " fill="#E8F5F9" transform="translate(237,224)"/>
<path d="M0 0 C0.99 0.33 1.98 0.66 3 1 C2.67 1.66 2.34 2.32 2 3 C2.66 3 3.32 3 4 3 C3.34 4.32 2.68 5.64 2 7 C1.01 7 0.02 7 -1 7 C-0.67 6.34 -0.34 5.68 0 5 C-0.66 5 -1.32 5 -2 5 C-1.34 3.35 -0.68 1.7 0 0 Z " fill="#256AA4" transform="translate(113,189)"/>
<path d="M0 0 C1.48206495 0.254496 2.96068615 0.52911762 4.4375 0.8125 C5.67306641 1.03873047 5.67306641 1.03873047 6.93359375 1.26953125 C7.95646484 1.63111328 7.95646484 1.63111328 9 2 C9.33 2.99 9.66 3.98 10 5 C8.35 4.67 6.7 4.34 5 4 C4.67 4.66 4.34 5.32 4 6 C2.62437146 4.71034824 1.29233607 3.37310707 0 2 C0 1.34 0 0.68 0 0 Z " fill="#2872B2" transform="translate(276,264)"/>
<path d="M0 0 C0.33 0.99 0.66 1.98 1 3 C0.01 4.485 0.01 4.485 -1 6 C-1.99 6 -2.98 6 -4 6 C-4.33 7.65 -4.66 9.3 -5 11 C-5.66 11 -6.32 11 -7 11 C-5.72278474 6.00724943 -3.82669043 3.42388092 0 0 Z " fill="#D4E9F2" transform="translate(273,210)"/>
<path d="M0 0 C0.66 0 1.32 0 2 0 C2.33 1.32 2.66 2.64 3 4 C1.68 4.99 0.36 5.98 -1 7 C-1.66 6.67 -2.32 6.34 -3 6 C-2.42655063 3.13275314 -2.1385485 2.1385485 0 0 Z " fill="#1F68A1" transform="translate(121,196)"/>
<path d="M0 0 C2.31 0 4.62 0 7 0 C7.5625 1.9375 7.5625 1.9375 8 4 C7 5 7 5 4.4375 5.0625 C3.2309375 5.0315625 3.2309375 5.0315625 2 5 C2 4.01 2 3.02 2 2 C1.34 1.34 0.68 0.68 0 0 Z " fill="#F4FBF9" transform="translate(124,156)"/>
<path d="M0 0 C0.66 0.33 1.32 0.66 2 1 C2 2.32 2 3.64 2 5 C1.01 5.66 0.02 6.32 -1 7 C-1.66 6.67 -2.32 6.34 -3 6 C-2.42655063 3.13275314 -2.1385485 2.1385485 0 0 Z " fill="#2467A3" transform="translate(135,154)"/>
<path d="M0 0 C1.32 0.33 2.64 0.66 4 1 C2.75482035 2.13033298 1.50363348 3.25405036 0.25 4.375 C-0.44609375 5.00148437 -1.1421875 5.62796875 -1.859375 6.2734375 C-3.84508688 7.87505183 -5.67954093 8.96520068 -8 10 C-6.66415278 5.99245833 -4.23106172 4.62523764 -1 2 C-0.67 1.34 -0.34 0.68 0 0 Z " fill="#2668A0" transform="translate(125,141)"/>
<path d="M0 0 C1 3 1 3 0.22265625 5.04296875 C-0.16019531 5.75066406 -0.54304688 6.45835937 -0.9375 7.1875 C-1.31777344 7.90292969 -1.69804687 8.61835938 -2.08984375 9.35546875 C-2.54037109 10.16951172 -2.54037109 10.16951172 -3 11 C-3.66 11 -4.32 11 -5 11 C-4.67 8.69 -4.34 6.38 -4 4 C-3.34 4 -2.68 4 -2 4 C-2 3.34 -2 2.68 -2 2 C-1.34 2 -0.68 2 0 2 C0 1.34 0 0.68 0 0 Z " fill="#256AA7" transform="translate(269,211)"/>
<path d="M0 0 C1.32 0.66 2.64 1.32 4 2 C3.34 3.32 2.68 4.64 2 6 C0.68 5.67 -0.64 5.34 -2 5 C-2 4.01 -2 3.02 -2 2 C-1.34 2 -0.68 2 0 2 C0 1.34 0 0.68 0 0 Z " fill="#3879A3" transform="translate(127,189)"/>
<path d="M0 0 C1.32 0 2.64 0 4 0 C4 0.66 4 1.32 4 2 C4.66 2 5.32 2 6 2 C6.33 1.34 6.66 0.68 7 0 C7 0.99 7 1.98 7 3 C5.68 3 4.36 3 3 3 C2.34 4.32 1.68 5.64 1 7 C1 6.01 1 5.02 1 4 C0.34 3.67 -0.32 3.34 -1 3 C-0.67 2.01 -0.34 1.02 0 0 Z " fill="#4181BC" transform="translate(150,186)"/>
<path d="M0 0 C0.99 0.33 1.98 0.66 3 1 C2.67 2.32 2.34 3.64 2 5 C0.35 5.33 -1.3 5.66 -3 6 C-2.42655063 3.13275314 -2.1385485 2.1385485 0 0 Z " fill="#FAFBFB" transform="translate(135,176)"/>
<path d="M0 0 C0.928125 0.2784375 0.928125 0.2784375 1.875 0.5625 C4.04160178 1.23686176 4.04160178 1.23686176 6 0 C6.33 1.65 6.66 3.3 7 5 C5.35 5.33 3.7 5.66 2 6 C2 4.68 2 3.36 2 2 C1.34 2 0.68 2 0 2 C0 1.34 0 0.68 0 0 Z " fill="#F9FBF7" transform="translate(124,168)"/>
<path d="M0 0 C-5.45914541 3.63943027 -9.77114652 2.95016409 -16 2 C-16 1.67 -16 1.34 -16 1 C-10.59255982 0.22750855 -5.46137814 -0.09752461 0 0 Z " fill="#1B66A1" transform="translate(304,288)"/>
<path d="M0 0 C1.32 0.66 2.64 1.32 4 2 C3.01 3.485 3.01 3.485 2 5 C1.34 5 0.68 5 0 5 C0 5.66 0 6.32 0 7 C-0.66 7 -1.32 7 -2 7 C-2.33 7.66 -2.66 8.32 -3 9 C-2.30058404 5.85262818 -1.23921302 2.97411124 0 0 Z " fill="#2577C2" transform="translate(267,208)"/>
<path d="M0 0 C1.65 0.33 3.3 0.66 5 1 C5 1.99 5 2.98 5 4 C1.25 5.125 1.25 5.125 -1 4 C-0.67 2.68 -0.34 1.36 0 0 Z " fill="#3974A5" transform="translate(140,176)"/>
<path d="M0 0 C0.66 0 1.32 0 2 0 C2.33 0.99 2.66 1.98 3 3 C-2.75 6 -2.75 6 -5 6 C-5 4.68 -5 3.36 -5 2 C-3.68 2 -2.36 2 -1 2 C-0.67 1.34 -0.34 0.68 0 0 Z " fill="#367DB7" transform="translate(117,151)"/>
<path d="M0 0 C2.475 0.99 2.475 0.99 5 2 C3.69593116 4.01920337 2.36176581 6.01924973 1 8 C0.67 8 0.34 8 0 8 C0 5.36 0 2.72 0 0 Z " fill="#DBDCDC" transform="translate(5,360)"/>
<path d="M0 0 C0.66 0 1.32 0 2 0 C2 2.64 2 5.28 2 8 C0.68 8 -0.64 8 -2 8 C-1.34 5.36 -0.68 2.72 0 0 Z " fill="#3076AC" transform="translate(321,268)"/>
<path d="M0 0 C1.32 0.66 2.64 1.32 4 2 C3.34 3.32 2.68 4.64 2 6 C0.68 5.34 -0.64 4.68 -2 4 C-1.34 2.68 -0.68 1.36 0 0 Z " fill="#3372A3" transform="translate(127,203)"/>
<path d="M0 0 C2.0625 0.4375 2.0625 0.4375 4 1 C3.67 2.32 3.34 3.64 3 5 C2.01 5 1.02 5 0 5 C-0.5625 3.0625 -0.5625 3.0625 -1 1 C-0.67 0.67 -0.34 0.34 0 0 Z " fill="#2B6DA4" transform="translate(113,176)"/>
<path d="M0 0 C0.99 0 1.98 0 3 0 C3.33 1.32 3.66 2.64 4 4 C3.34 4 2.68 4 2 4 C1.67 4.66 1.34 5.32 1 6 C0.01 5.34 -0.98 4.68 -2 4 C-1.34 2.68 -0.68 1.36 0 0 Z " fill="#3471A7" transform="translate(127,162)"/>
<path d="M0 0 C0.99 0.33 1.98 0.66 3 1 C2.67 3.31 2.34 5.62 2 8 C0.68 7.01 -0.64 6.02 -2 5 C-1.125 1.125 -1.125 1.125 0 0 Z " fill="#D6EAF0" transform="translate(121,148)"/>
<path d="M0 0 C3.875 1.75 3.875 1.75 5 4 C4.01 4 3.02 4 2 4 C2.33 5.32 2.66 6.64 3 8 C0.52557871 5.84832931 -0.56238367 4.28212246 -1 1 C-0.67 0.67 -0.34 0.34 0 0 Z " fill="#DCEEF3" transform="translate(128,143)"/>
<path d="M0 0 C3.875 1.75 3.875 1.75 5 4 C3.68 3.67 2.36 3.34 1 3 C0.67 4.32 0.34 5.64 0 7 C-0.66 6.34 -1.32 5.68 -2 5 C-1.46428571 1.46428571 -1.46428571 1.46428571 0 0 Z " fill="#3B77A4" transform="translate(134,182)"/>
<path d="M0 0 C0 0.66 0 1.32 0 2 C0.66 2.33 1.32 2.66 2 3 C0.625 4.5 0.625 4.5 -1 6 C-1.66 6 -2.32 6 -3 6 C-3 5.01 -3 4.02 -3 3 C-3.66 2.67 -4.32 2.34 -5 2 C-2 0 -2 0 0 0 Z " fill="#DBF0F4" transform="translate(132,180)"/>
<path d="M0 0 C2.125 0.375 2.125 0.375 4 1 C4 1.99 4 2.98 4 4 C2.68 4.33 1.36 4.66 0 5 C-0.66 4.01 -1.32 3.02 -2 2 C-1.34 1.34 -0.68 0.68 0 0 Z " fill="#286396" transform="translate(154,176)"/>
<path d="M0 0 C0.99 1.32 1.98 2.64 3 4 C2.01 4 1.02 4 0 4 C-0.66 5.32 -1.32 6.64 -2 8 C-2.6875 5.6875 -2.6875 5.6875 -3 3 C-1.5625 1.1875 -1.5625 1.1875 0 0 Z " fill="#DDEBF2" transform="translate(267,270)"/>
<path d="M0 0 C0.33 0.66 0.66 1.32 1 2 C1.99 1.67 2.98 1.34 4 1 C4.33 2.32 4.66 3.64 5 5 C3.68 5.33 2.36 5.66 1 6 C0.34 4.35 -0.32 2.7 -1 1 C-0.67 0.67 -0.34 0.34 0 0 Z " fill="#2E7BBC" transform="translate(297,266)"/>
<path d="M0 0 C0.6875 1.6875 0.6875 1.6875 1 4 C-0.375 6.75 -0.375 6.75 -2 9 C-2.33 9 -2.66 9 -3 9 C-2.67 6.69 -2.34 4.38 -2 2 C-1.34 2 -0.68 2 0 2 C0 1.34 0 0.68 0 0 Z " fill="#ECF7F7" transform="translate(252,240)"/>
<path d="M0 0 C0.33 0 0.66 0 1 0 C1 2.64 1 5.28 1 8 C0.01 8 -0.98 8 -2 8 C-2 6.02 -2 4.04 -2 2 C-1.34 2 -0.68 2 0 2 C0 1.34 0 0.68 0 0 Z " fill="#1469AA" transform="translate(236,227)"/>
<path d="M0 0 C2.375 0.3125 2.375 0.3125 5 1 C5.66 1.99 6.32 2.98 7 4 C5.68 4.33 4.36 4.66 3 5 C3 4.34 3 3.68 3 3 C2.34 3 1.68 3 1 3 C0.67 2.01 0.34 1.02 0 0 Z " fill="#E2F2F7" transform="translate(240,207)"/>
<path d="M0 0 C0.33 0.99 0.66 1.98 1 3 C-2.3 2.34 -5.6 1.68 -9 1 C-4.82091936 -1.08954032 -4.19589427 -1.16552619 0 0 Z " fill="#2475C3" transform="translate(311,202)"/>
<path d="M0 0 C1.65 1.65 3.3 3.3 5 5 C4.01 5.33 3.02 5.66 2 6 C0.68 4.68 -0.64 3.36 -2 2 C-1.34 2 -0.68 2 0 2 C0 1.34 0 0.68 0 0 Z " fill="#DAEAEE" transform="translate(107,161)"/>
<path d="M0 0 C0.66 0 1.32 0 2 0 C2 0.66 2 1.32 2 2 C4.475 2.99 4.475 2.99 7 4 C6.67 5.32 6.34 6.64 6 8 C5.67 7.01 5.34 6.02 5 5 C4.34 4.67 3.68 4.34 3 4 C1 3 1 3 0 0 Z " fill="#236DAA" transform="translate(133,145)"/>
<path d="M0 0 C0.763125 0.66 1.52625 1.32 2.3125 2 C4.84277939 4.29850538 4.84277939 4.29850538 8 4 C8 4.66 8 5.32 8 6 C3.50347222 6.36458333 3.50347222 6.36458333 1.1875 4.6875 C0 3 0 3 0 0 Z " fill="#3378AA" transform="translate(122,210)"/>
<path d="M0 0 C0.99 0.99 1.98 1.98 3 3 C2.67 3.66 2.34 4.32 2 5 C2.33 5.99 2.66 6.98 3 8 C-0.875 6.25 -0.875 6.25 -2 4 C-1.34 4 -0.68 4 0 4 C0 2.68 0 1.36 0 0 Z " fill="#D0E4EE" transform="translate(126,207)"/>
<path d="M0 0 C0.99 0.33 1.98 0.66 3 1 C3 1.99 3 2.98 3 4 C3.66 4 4.32 4 5 4 C5 4.66 5 5.32 5 6 C3.68 6.33 2.36 6.66 1 7 C0.67 4.69 0.34 2.38 0 0 Z " fill="#F8FDF9" transform="translate(126,182)"/>
<path d="M0 0 C2.125 0.375 2.125 0.375 4 1 C2.35 2.65 0.7 4.3 -1 6 C-1.625 4.125 -1.625 4.125 -2 2 C-1.34 1.34 -0.68 0.68 0 0 Z " fill="#176DB3" transform="translate(136,167)"/>
<path d="M0 0 C0.66 0 1.32 0 2 0 C2 1.65 2 3.3 2 5 C-0.9719385 3.87548273 -3.33440687 2.77706209 -6 1 C-3.03 1.495 -3.03 1.495 0 2 C0 1.34 0 0.68 0 0 Z " fill="#BEBEBE" transform="translate(390,21)"/>
<path d="M0 0 C-1.20703125 1.51953125 -1.20703125 1.51953125 -3 3 C-5.26171875 3.07421875 -5.26171875 3.07421875 -7.6875 2.6875 C-8.89986328 2.50767578 -8.89986328 2.50767578 -10.13671875 2.32421875 C-10.75160156 2.21722656 -11.36648437 2.11023438 -12 2 C-12 1.67 -12 1.34 -12 1 C-10.37681021 0.63762737 -8.7513642 0.28534843 -7.125 -0.0625 C-6.22007812 -0.25972656 -5.31515625 -0.45695313 -4.3828125 -0.66015625 C-2 -1 -2 -1 0 0 Z " fill="#D7EFF7" transform="translate(236,241)"/>
<path d="M0 0 C0.33 0.66 0.66 1.32 1 2 C0.34 2 -0.32 2 -1 2 C-1 2.99 -1 3.98 -1 5 C-0.34 5 0.32 5 1 5 C0.34 6.65 -0.32 8.3 -1 10 C-1.33 10 -1.66 10 -2 10 C-2 7.03 -2 4.06 -2 1 C-1.34 0.67 -0.68 0.34 0 0 Z " fill="#2177C5" transform="translate(287,222)"/>
<path d="M0 0 C2.125 0.375 2.125 0.375 4 1 C4 3 4 3 2.625 4.625 C1 6 1 6 -1 6 C-1.625 4.125 -1.625 4.125 -2 2 C-1.34 1.34 -0.68 0.68 0 0 Z " fill="#3A81C2" transform="translate(116,186)"/>
<path d="M0 0 C1.32 0.66 2.64 1.32 4 2 C4 2.99 4 3.98 4 5 C3.34 5 2.68 5 2 5 C1.67 4.34 1.34 3.68 1 3 C-0.32 3.33 -1.64 3.66 -3 4 C-2.01 2.68 -1.02 1.36 0 0 Z " fill="#3F7AA8" transform="translate(120,182)"/>
<path d="M0 0 C0.66 0 1.32 0 2 0 C2 1.32 2 2.64 2 4 C3.32 4.33 4.64 4.66 6 5 C5.34 5 4.68 5 4 5 C4 5.66 4 6.32 4 7 C2.68 6.34 1.36 5.68 0 5 C0 3.35 0 1.7 0 0 Z " fill="#3C7EB4" transform="translate(136,150)"/>
<path d="M0 0 C1.32 0.66 2.64 1.32 4 2 C3.01 3.485 3.01 3.485 2 5 C1.01 4.67 0.02 4.34 -1 4 C-0.67 2.68 -0.34 1.36 0 0 Z " fill="#276BA1" transform="translate(127,149)"/>
</svg>
